<?xml version="1.0" standalone="no"?>
<!DOCTYPE svg PUBLIC "-//W3C//DTD SVG 20010904//EN"
 "http://www.w3.org/TR/2001/REC-SVG-20010904/DTD/svg10.dtd">
<svg version="1.0" xmlns="http://www.w3.org/2000/svg"
 width="1024.000000pt" height="1024.000000pt" viewBox="0 0 1024.000000 1024.000000"
 preserveAspectRatio="xMidYMid meet">
<metadata>
Created by potrace 1.14, written by Peter Selinger 2001-2017
</metadata>
<g transform="translate(0.000000,1024.000000) scale(0.100000,-0.100000)"
fill="#000000" stroke="none">
<path d="M7690 8357 c-50 -9 -50 -9 -235 -1 -194 9 -289 -19 -372 -109 -48
-52 -73 -98 -99 -181 l-18 -58 -408 -204 c-224 -112 -410 -204 -413 -204 -3 0
-5 7 -5 16 0 38 -54 126 -110 177 -73 68 -146 98 -240 99 -82 1 -122 -8 -182
-38 -62 -32 -109 -74 -147 -132 -48 -76 -61 -144 -61 -332 l0 -165 -228 -115
c-125 -63 -230 -116 -234 -118 -4 -2 -12 15 -19 38 -17 57 -80 125 -133 145
-37 14 -72 16 -203 13 -178 -5 -217 -16 -289 -86 -80 -78 -119 -170 -169 -402
-15 -69 -28 -126 -28 -126 -11 -10 -1210 -604 -1213 -601 -2 2 -15 62 -28 134
-30 161 -60 226 -137 297 -74 69 -138 90 -253 84 -104 -5 -174 -37 -240 -108
-90 -96 -91 -99 -94 -468 l-3 -322 -67 -34 c-80 -41 -113 -70 -141 -125 -77
-150 13 -319 181 -340 l52 -6 13 -130 c38 -383 130 -757 276 -1127 l54 -136
-100 -7 c-114 -8 -170 -24 -211 -63 -39 -37 -56 -81 -56 -147 0 -64 20 -118
58 -159 17 -18 160 -95 383 -205 l356 -176 81 -102 c87 -110 172 -202 291
-318 383 -371 869 -617 1349 -680 154 -20 650 -21 824 0 468 55 898 231 1278
524 112 86 324 294 415 406 87 109 183 250 248 367 49 87 49 87 95 94 245 34
442 128 607 289 186 182 291 393 320 643 4 34 12 65 17 68 5 4 5 10 0 17 -5 7
-12 55 -15 107 -16 247 -123 477 -306 661 -106 105 -196 168 -313 220 l-78 34
3 1305 2 1305 70 38 c109 60 146 102 158 181 25 159 -121 294 -283 263z m-860
-959 c0 -19 -379 -1760 -388 -1782 -5 -11 -50 278 -115 730 -59 412 -107 752
-107 756 0 8 587 306 603 307 4 1 7 -5 7 -11z m-1430 -1765 c0 -684 -4 -1084
-11 -1112 -36 -157 -184 -312 -334 -349 -22 -6 -59 -13 -83 -16 l-44 -6 4
1156 3 1156 24 19 c12 10 27 16 32 13 5 -3 9 0 9 5 0 9 373 200 393 201 4 0 7
-480 7 -1067z m-1432 325 c-41 -206 -303 -1408 -307 -1408 -3 0 -41 32 -84 71
-161 147 -345 397 -459 624 -57 113 -114 252 -107 259 2 2 112 58 244 124 132
66 310 157 395 202 149 78 295 148 314 149 4 1 6 -9 4 -21z m2766 -1582 c46
-19 66 -52 66 -106 0 -38 -5 -52 -31 -78 -52 -53 -121 -51 -172 6 -46 51 -26
145 37 176 39 19 58 20 100 2z m936 -1 c77 -40 94 -123 37 -180 -41 -41 -77
-51 -117 -35 -97 40 -108 169 -18 213 41 21 61 21 98 2z m-315 -250 c49 -48
24 -135 -52 -188 -87 -60 -156 -71 -231 -37 -100 46 -159 121 -141 183 17 63
32 67 226 67 171 0 174 0 198 -25z"/>
</g>
</svg>
